HIERARCHY
ROOT Hips
{
  OFFSET 40.9192 92.6879 18.85
  CHANNELS 6 Xposition Yposition Zposition Zrotation Xrotation Yrotation
  JOINT LeftUpLeg
  {
    OFFSET 8.64259 1.95398 -2.38835
    CHANNELS 3 Zrotation Xrotation Yrotation
    JOINT LeftLeg
    {
      OFFSET 43.7702 0 0
      CHANNELS 3 Zrotation Xrotation Yrotation
      JOINT LeftFoot
      {
        OFFSET 40.6238 0 0
        CHANNELS 3 Zrotation Xrotation Yrotation
        JOINT LeftToeBase
        {
          OFFSET 12.7242 0 0
          CHANNELS 3 Zrotation Xrotation Yrotation
          End Site
          {
            OFFSET 0 0 0
          }
        }
      }
    }
  }
  JOINT RightUpLeg
  {
    OFFSET -8.2249 1.95398 -2.59336
    CHANNELS 3 Zrotation Xrotation Yrotation
    JOINT RightLeg
    {
      OFFSET 43.5653 0 0
      CHANNELS 3 Zrotation Xrotation Yrotation
      JOINT RightFoot
      {
        OFFSET 40.6238 0 0
        CHANNELS 3 Zrotation Xrotation Yrotation
        JOINT RightToeBase
        {
          OFFSET 12.7242 0 0
          CHANNELS 3 Zrotation Xrotation Yrotation
          End Site
          {
            OFFSET 0 0 0
          }
        }
      }
    }
  }
  JOINT Spine
  {
    OFFSET 0.165834 0.87714 6.61349
    CHANNELS 3 Zrotation Xrotation Yrotation
    JOINT Spine1
    {
      OFFSET 7.38963 1.71661e-005 0
      CHANNELS 3 Zrotation Xrotation Yrotation
      JOINT Spine2
      {
        OFFSET 11.9445 1.14441e-005 0
        CHANNELS 3 Zrotation Xrotation Yrotation
        JOINT Spine3
        {
          OFFSET 14.7254 4.19617e-005 0
          CHANNELS 3 Zrotation Xrotation Yrotation
          JOINT Spine4
          {
            OFFSET 10.9679 0 0
            CHANNELS 3 Zrotation Xrotation Yrotation
            JOINT RightShoulder
            {
              OFFSET 2.46616 -1.6653 3.69651
              CHANNELS 3 Zrotation Xrotation Yrotation
              JOINT RightArm
              {
                OFFSET 13.0012 0 0
                CHANNELS 3 Zrotation Xrotation Yrotation
                JOINT RightForeArm
                {
                  OFFSET 28.7848 1.52588e-005 0
                  CHANNELS 3 Zrotation Xrotation Yrotation
                  JOINT RightHand
                  {
                    OFFSET 26.5688 1.52588e-005 0
                    CHANNELS 3 Zrotation Xrotation Yrotation
                    End Site
                    {
                      OFFSET 0 0 0
                    }
                  }
                }
              }
            }
            JOINT LeftShoulder
            {
              OFFSET 2.38034 -1.29275 -3.7523
              CHANNELS 3 Zrotation Xrotation Yrotation
              JOINT LeftArm
              {
                OFFSET 16.3182 6.10351e-005 0
                CHANNELS 3 Zrotation Xrotation Yrotation
                JOINT LeftForeArm
                {
                  OFFSET 27.0901 0 0
                  CHANNELS 3 Zrotation Xrotation Yrotation
                  JOINT LeftHand
                  {
                    OFFSET 24.5451 1.52588e-005 0
                    CHANNELS 3 Zrotation Xrotation Yrotation
                    End Site
                    {
                      OFFSET 0 0 0
                    }
                  }
                }
              }
            }
            JOINT Neck
            {
              OFFSET 5.0226 -0.0266342 0
              CHANNELS 3 Zrotation Xrotation Yrotation
              JOINT Head
              {
                OFFSET 6.69363 2.86102e-005 0
                CHANNELS 3 Zrotation Xrotation Yrotation
                End Site
                {
                  OFFSET 0 0 0
                }
              }
            }
          }
        }
      }
    }
  }
}
MOTION
Frames:	17
Frame Time:	0.0416667
-5.67493 93.2499 6.15668 66.0303 -48.5598 75.3866 -162.36 48.9132 89.4817 -35.7443 16.2698 -8.93894 52.7377 -5.70315 -2.5525 46.4223 16.0551 13.8553 178.393 4.45284 91.3837 -63.8287 2.19922 -4.1347 36.1687 3.77329 4.27477 21.2583 0.594614 -7.476 1.63518 8.64089 -89.3693 9.57851 3.54456 0.979747 -2.08787 3.58427 0.822625 -24.6512 3.08613 2.00053 -4.63854 3.08615 2.00053 93.6593 -40.0182 -97.0469 35.011 -18.886 3.51028 -12.3321 -0.135685 -92.7767 -29.6412 0.411122 -6.32795 -91.6326 -44.8246 74.9801 -39.4547 6.32277 36.1459 5.06636 -1.56005 -80.8833 36.5755 1.18888 -0.752271 -3.4688 -2.89975 -5.70187 18.781 -2.03162 1.65948 
1.06765 92.1446 12.8143 70.7262 -48.5127 77.0645 -162.975 39.9156 88.2014 -38.6383 18.8577 -9.28715 61.7372 2.45775 5.65784 39.3028 8.36341 2.32529 177.976 12.648 89.9728 -83.6631 8.16468 -2.79384 37.0583 1.62895 2.12573 20.6835 0.491743 -6.61586 1.11729 9.05311 -89.0701 8.74643 2.64197 1.66659 -2.92276 2.71276 1.54865 -25.4633 2.01907 2.38352 -5.45062 2.01907 2.38352 92.9335 -43.7369 -97.5151 33.4974 -17.7412 8.41448 -17.2141 -9.70578 -84.3276 -31.7676 -0.122706 -3.73803 -93.1811 -47.658 73.3557 -33.7144 4.57097 28.8717 6.67757 -1.32559 -82.9168 37.2477 1.57617 0.246864 -3.10386 -1.32053 -7.43811 19.1793 -0.0143656 2.95972 
7.80174 90.3613 19.1626 71.5991 -47.1734 75.8342 -163.453 35.2648 85.7379 -45.502 12.0592 -8.77599 71.5957 10.8482 5.40057 36.9359 6.4196 0.827907 176.764 25.4275 89.3761 -100.188 10.1521 -2.05167 36.8631 -0.248113 0.303937 24.0968 0.346631 -5.46563 0.538775 9.07109 -88.8169 8.71071 1.59995 2.23602 -2.96105 1.6968 2.16348 -25.4837 0.85422 2.61327 -5.4711 0.854239 2.61326 92.9853 -45.5432 -97.0665 33.6263 -18.4634 14.5299 -13.6781 -12.5826 -74.5982 -32.5819 -0.455376 -2.62706 -94.7636 -48.405 71.1859 -29.4014 3.28523 21.0828 9.37057 -1.19861 -86.1098 37.2376 2.18457 1.94582 -1.15148 -0.354396 -8.12496 17.3982 1.1868 3.46749 
14.235 89.3844 25.3455 69.7711 -43.5455 73.2721 -166.1 32.1606 83.2457 -47.6097 13.0246 -6.4039 72.7321 13.7073 9.11177 41.6792 10.2346 1.59147 174.497 41.0975 90.7042 -109.851 7.51599 -2.13501 35.5298 -0.327266 0.132829 27.7815 0.436617 -6.65497 -0.156128 8.84695 -88.6866 9.16959 0.276526 2.58183 -2.50385 0.389865 2.56715 -25.0189 -0.511931 2.54564 -5.00625 -0.511932 2.54564 91.9464 -46.1252 -98.6305 35.147 -18.3326 23.5577 -9.55681 -14.1438 -68.3921 -33.0489 -0.346595 -3.09829 -94.3213 -45.5763 70.9942 -26.8408 4.85542 11.6243 10.1166 -1.94995 -89.8538 37.918 2.62749 3.03015 1.61074 0.313062 -8.23922 15.5072 1.93543 3.16235 
21.5467 89.4736 31.7709 69.8851 -41.4033 73.6762 -168.995 24.8907 84.5083 -44.4593 17.6383 -5.21803 71.0787 13.7763 12.2707 47.0926 14.4562 0.991035 172.779 51.7938 93.3438 -111.398 5.85565 -2.21187 38.4685 -0.00956041 0.354626 30.9945 0.450812 -7.5257 -0.570908 8.75438 -88.8129 9.3655 -0.604978 2.39638 -2.30753 -0.498952 2.42066 -24.8296 -1.29709 2.10398 -4.81692 -1.29709 2.10398 91.4798 -47.063 -99.1772 35.6179 -18.61 33.0583 -8.31029 -15.6381 -66.9661 -30.8074 -0.295595 -3.25083 -92.0818 -42.0498 73.478 -25.9971 5.06941 2.57941 10.7486 -2.76742 -95.2409 42.2424 2.11255 0.985394 1.46758 1.01677 -8.48422 15.1959 2.78527 3.98724 
29.1193 90.7675 38.4751 71.7931 -42.5422 76.2873 -169.979 14.515 87.3189 -38.602 19.1002 -4.40686 67.7215 10.1534 9.41439 49.199 16.3897 2.48451 173.477 57.0002 95.8333 -105.995 2.95507 -2.06014 43.2941 0.572683 0.754782 30.4183 0.483243 -7.99269 -0.702009 8.76125 -89.0194 9.35534 -0.959364 2.01457 -2.31687 -0.869799 2.05482 -24.8459 -1.52039 1.63325 -4.83323 -1.52041 1.63324 92.1272 -47.776 -97.9963 35.6146 -20.7568 41.2542 -8.76412 -16.8123 -67.9528 -26.9147 -0.20837 -3.55089 -89.78 -39.0991 76.4759 -27.7454 3.38704 -0.688453 11.933 -4.76303 -105.91 42.7436 2.03669 0.752392 -0.689605 2.08908 -9.04585 14.7718 4.07709 5.98222 
37.3331 92.9254 45.3556 72.5766 -42.9148 79.1554 -170.475 4.84856 92.8102 -29.3378 21.3467 -2.69574 57.5193 0.349217 0.396667 50.9235 18.9969 7.91783 171.929 59.0939 99.0334 -94.252 -0.459283 -1.53923 45.2501 1.84441 1.81715 30.8417 0.536126 -9.36868 -0.925872 8.64348 -89.336 9.59597 -1.54622 1.43606 -2.0749 -1.48152 1.50271 -24.6146 -1.9063 0.904919 -4.60191 -1.90629 0.904925 91.1125 -46.9129 -99.7936 38.0753 -21.8621 49.3616 -7.71789 -16.5547 -68.7741 -26.4565 -0.122727 -3.97877 -87.5905 -36.7229 79.6557 -29.0917 3.18207 -2.03439 12.7884 -7.75396 -115.65 39.0026 1.62713 0.172277 -3.57568 3.74175 -8.92485 14.7662 5.76507 7.60744 
45.6376 94.8022 52.5024 74.1144 -41.9388 81.446 -170.261 -4.78663 93.9548 -18.4118 24.2562 -0.944486 40.0851 -10.8166 -8.83256 44.0773 13.302 10.8735 169.956 57.8444 99.7899 -78.8733 -1.39524 -0.128008 45.5164 2.99452 2.85115 29.2875 0.57088 -9.10328 -1.27377 8.59842 -89.6297 9.6874 -2.37191 0.919988 -1.98178 -2.32912 1.02354 -24.5341 -2.53869 0.164194 -4.52145 -2.5387 0.164168 90.0978 -45.3194 -101.808 41.1156 -20.9901 56.2648 -7.63702 -15.4834 -70.2188 -25.2525 0.113111 -5.10661 -86.6258 -36.0111 81.2027 -29.4714 3.77601 -1.66652 11.6901 -10.2582 -125.136 35.9164 0.993823 -1.24698 -6.15529 5.11868 -7.53915 14.3742 6.91497 8.12074 
54.0051 96.3797 60.4281 74.1801 -40.8013 82.0155 -170.951 -8.35881 95.3422 -21.333 29.4474 0.572595 37.3997 -13.0749 -6.49858 32.3694 2.20076 11.7566 170.349 54.9655 98.7974 -60.2068 -2.99304 1.5997 43.0907 4.28256 4.17047 25.5564 0.530656 -7.44138 -1.54176 8.46977 -89.8451 9.94323 -3.00256 0.551979 -1.72443 -2.97533 0.683698 -24.2873 -3.0295 -0.376781 -4.27466 -3.0295 -0.376783 90.051 -43.1283 -102.458 43.5936 -19.4657 60.2285 -9.42376 -14.5189 -72.0172 -23.4286 0.371752 -6.4194 -86.4009 -36.6438 81.7374 -28.8586 6.12817 -1.0501 10.3674 -12.2995 -132.255 33.4921 0.516888 -2.48653 -8.41037 5.96941 -8.1355 14.6359 8.17511 11.0746 
62.0247 96.6203 68.3501 72.2792 -40.7265 78.3819 -173.947 -6.48201 92.2547 -35.4116 22.7687 1.79021 40.8573 -10.4773 -5.54191 30.7299 0.577572 11.9791 173.871 52.4855 95.2959 -41.5349 -6.67307 1.53782 45.0546 4.23767 4.02365 23.4981 0.588548 -7.7057 -1.66642 8.1718 -89.6943 10.546 -3.17872 0.8904 -1.12146 -3.13647 1.02955 -23.688 -3.29922 -0.107134 -3.67537 -3.29921 -0.107136 90.3861 -42.7707 -101.995 44.5403 -17.9224 62.0714 -9.93893 -12.5419 -74.1235 -23.3754 0.496216 -7.0841 -85.7086 -37.1496 83.0569 -29.4745 12.2984 -0.0669652 11.6985 -15.4548 -132.994 32.7477 0.667123 -1.97626 -10.1425 6.35658 -7.67383 16.0154 8.61404 11.3231 
69.5053 96.5617 76.083 72.586 -41.707 75.6935 -174.8 -4.02039 89.4365 -50.4599 18.0615 1.35654 38.93 -11.3294 -7.79623 30.5389 0.307776 12.9404 176.067 47 93.0851 -25.8225 -7.74671 0.802477 47.2577 3.92789 3.60531 23.3527 0.730087 -8.94052 -1.51242 8.13201 -89.4805 10.6271 -2.77307 1.28462 -1.04168 -2.71383 1.40547 -23.5997 -3.03085 0.391149 -3.58708 -3.03086 0.391149 91.152 -43.3946 -100.558 43.8336 -15.6553 60.3244 -8.58701 -10.3026 -75.099 -23.5278 0.472066 -7.07713 -86.7291 -38.3139 81.5099 -30.9997 16.2728 3.00153 12.5589 -15.091 -127.132 33.69 0.846427 -1.49685 -10.501 5.84497 -6.79714 15.598 7.94203 10.885 
77.1945 96.3055 83.4253 74.653 -42.6076 75.9333 -173.886 0.13854 89.4828 -67.2276 17.1372 0.768297 37.3378 -11.9787 -7.77245 28.4545 -2.07013 15.2562 175.807 42.0266 92.5925 -21.7151 -8.05662 0.927252 45.3952 4.48222 4.20048 25.2394 0.726917 -9.4759 -1.24133 8.25746 -89.5164 10.3709 -2.25143 1.15712 -1.29873 -2.19833 1.25511 -23.8487 -2.49507 0.426612 -3.83605 -2.49506 0.426624 91.7695 -44.6077 -99.252 41.6459 -14.1491 55.4041 -6.03134 -8.64821 -75.1413 -24.6186 0.59976 -7.68284 -88.8963 -41.2156 78.4858 -31.5853 17.3584 7.01198 12.3987 -11.8017 -116.733 34.6722 1.28109 -0.27748 -12.6616 4.69352 -4.316 17.1791 6.51412 9.30947 
84.8477 95.4835 90.7654 77.0309 -42.9795 77.8434 -171.6 6.4693 91.8366 -83.4737 15.2347 0.609507 37.0372 -11.4913 -5.87634 28.6564 -1.28932 10.708 175.236 36.6515 93.0118 -24.6111 -7.79581 1.3412 46.4107 3.76917 3.57009 26.5771 0.425994 -6.5949 -0.954439 8.44563 -89.6643 9.98915 -1.74953 0.810067 -1.68092 -1.71217 0.88628 -24.2253 -1.91209 0.246635 -4.21258 -1.91209 0.246623 92.6361 -47.9268 -97.1601 37.1363 -14.348 48.0257 -5.59454 -7.59728 -76.5759 -25.6184 0.523643 -7.26945 -89.765 -43.6611 77.6497 -32.1524 18.3219 10.3813 11.7811 -8.90174 -104.073 35.8795 1.31611 -0.314703 -14.4762 3.58988 -2.88965 18.7364 5.2231 7.98633 
91.9024 94.4257 97.9359 80.297 -42.2519 80.5471 -169.937 15.6545 92.9837 -97.2743 11.7403 1.12089 36.8834 -9.84256 -5.217 27.7055 -2.42782 12.346 174.028 30.9151 93.4594 -33.3936 -8.12812 2.16187 62.2609 -1.37937 -0.707437 26.0694 0.0343118 -1.87064 -0.776394 8.69214 -89.8037 9.49331 -1.45963 0.499177 -2.17692 -1.43623 0.562938 -24.7188 -1.54214 0.037322 -4.70611 -1.54215 0.0373218 93.0407 -49.0171 -96.3235 34.6843 -14.0898 38.3829 -4.89705 -6.90874 -77.0203 -27.1649 0.672958 -7.78292 -89.3616 -44.9017 78.5874 -33.7011 19.5849 13.8093 12.4108 0.187396 -92.3796 38.8682 1.77856 0.579144 -14.0272 2.20068 -1.14625 17.6849 3.34204 5.79159 
98.384 93.6032 104.654 81.3489 -41.8466 81.744 -168.412 27.9962 93.142 -106.196 10.0073 1.69211 36.8852 -8.33102 -5.25115 29.3091 -0.783805 11.7475 174.036 26.6537 94.2901 -39.8517 -7.23602 1.78286 70.451 -4.43139 -2.25999 29.1563 0.186548 -2.84665 -0.38071 8.81223 -89.8608 9.25045 -0.6968 0.326817 -2.42036 -0.681746 0.357167 -24.957 -0.762805 0.102287 -4.94438 -0.762793 0.102286 92.9209 -48.0971 -96.6781 35.7382 -11.4951 28.5417 -5.98804 -6.0229 -78.866 -31.1093 0.632894 -7.19457 -89.7034 -44.8427 78.0304 -35.018 20.2706 18.7501 11.3781 -2.08395 -82.1981 40.1269 2.28424 1.73146 -10.928 0.640124 -1.5494 14.4428 1.57027 5.31165 
104.965 93.7252 111.493 78.7103 -44.0649 79.7684 -163.815 40.1997 90.6547 -106.955 12.6306 1.65335 38.8629 -8.23902 -4.71543 30.1129 -0.115078 12.9233 175.267 22.1108 94.8986 -40.3876 -7.26513 0.381312 72.5434 -5.68564 -2.82202 33.4608 0.270618 -1.55704 0.276704 8.66303 -89.8435 9.54711 0.622314 0.262783 -2.12371 0.633272 0.235128 -24.6595 0.514558 0.437668 -4.64689 0.514559 0.437661 92.965 -42.9061 -97.6335 40.1162 -8.5192 21.5817 -7.79039 -3.6504 -86.8017 -30.539 0.607237 -7.1648 -91.377 -45.3738 75.5236 -36.908 19.6354 26.4692 6.49633 -0.539982 -78.7437 43.0467 2.22119 1.15015 -8.25722 -1.39844 -0.406678 12.0309 -0.821069 3.75696 
111.829 94.4673 119.106 77.541 -46.9677 78.4934 -160.775 47.4132 88.9489 -100.694 17.1539 0.753296 43.8578 -7.66731 -5.37506 31.3898 0.947174 15.4026 176.444 15.2884 94.398 -38.4704 -11.007 -1.19278 68.8996 -4.68877 -2.49828 39.6095 0.485963 -1.79352 0.792871 8.60286 -89.651 9.66405 1.7384 0.557421 -2.00582 1.76126 0.480339 -24.5474 1.49048 1.05419 -4.53471 1.4905 1.05419 94.2312 -40.1769 -96.0083 41.3686 -9.12242 14.6727 -10.0303 -3.08053 -95.3156 -32.7457 0.93665 -8.04608 -89.9745 -44.4142 77.5006 -40.3195 19.5263 34.6107 4.98061 -1.51239 -80.0466 41.283 1.87978 0.545421 -7.5284 -2.65671 -1.81891 11.2466 -2.10159 3.25809 
